STARTFONT 2.1
FONT -FontForge-White Rabbit-Book-R-Normal--50-480-75-75-P-287-ISO10646-1
SIZE 48 75 75
FONTBOUNDINGBOX 26 38 0 -5
COMMENT "Generated by fontforge, http://fontforge.sourceforge.net"
COMMENT "Copyright (c) 1999 by Matthew Welch. All Rights Reserved."
STARTPROPERTIES 40
FOUNDRY "FontForge"
FAMILY_NAME "White Rabbit"
WEIGHT_NAME "Book"
SLANT "R"
SETWIDTH_NAME "Normal"
ADD_STYLE_NAME ""
PIXEL_SIZE 50
POINT_SIZE 480
RESOLUTION_X 75
RESOLUTION_Y 75
SPACING "P"
AVERAGE_WIDTH 287
CHARSET_REGISTRY "ISO10646"
CHARSET_ENCODING "1"
FONTNAME_REGISTRY ""
CHARSET_COLLECTIONS "ISO10646-1"
FONT_NAME "WhiteRabbit"
FACE_NAME "White Rabbit"
COPYRIGHT "Copyright (c) 1999 by Matthew Welch. All Rights Reserved."
FONT_VERSION "1.00"
FONT_ASCENT 40
FONT_DESCENT 10
UNDERLINE_POSITION 0
UNDERLINE_THICKNESS 0
X_HEIGHT 23
CAP_HEIGHT 32
RAW_ASCENT 800
RAW_DESCENT 200
NORM_SPACE 29
RELATIVE_WEIGHT 40
RELATIVE_SETWIDTH 50
SUPERSCRIPT_X 0
SUPERSCRIPT_Y 0
SUPERSCRIPT_SIZE 0
SUBSCRIPT_X 0
SUBSCRIPT_Y 0
SUBSCRIPT_SIZE 0
FIGURE_WIDTH 29
AVG_LOWERCASE_WIDTH 290
AVG_UPPERCASE_WIDTH 290
ENDPROPERTIES
CHARS 101
STARTCHAR space
ENCODING 32
SWIDTH 571 0
DWIDTH 29 0
BBX 1 1 0 0
BITMAP
00
ENDCHAR
STARTCHAR exclam
ENCODING 33
SWIDTH 571 0
DWIDTH 29 0
BBX 10 33 7 0
BITMAP
7F80
FFC0
FFC0
FFC0
FFC0
FFC0
FFC0
FFC0
FFC0
FFC0
FFC0
FFC0
FFC0
FFC0
FFC0
FFC0
FFC0
FF80
3F00
0000
0000
0000
0000
3E00
7F80
FFC0
FFC0
FFC0
FFC0
FFC0
FFC0
FFC0
7F80
ENDCHAR
STARTCHAR quotedbl
ENCODING 34
SWIDTH 571 0
DWIDTH 29 0
BBX 14 9 7 24
BITMAP
703C
F83C
F83C
F83C
F83C
F83C
F83C
F83C
703C
ENDCHAR
STARTCHAR numbersign
ENCODING 35
SWIDTH 571 0
DWIDTH 29 0
BBX 24 33 2 0
BITMAP
0381E0
07C1E0
07C1E0
07C1E0
07C1E0
07C1E0
07C1E0
07C1E0
07C1E0
3FFFFE
7FFFFF
FFFFFF
7FFFFF
7FFFFE
07C1E0
07C1E0
07C1E0
07C1E0
07C1E0
7FFFFF
FFFFFF
FFFFFF
7FFFFF
07C1E0
07C1E0
07C1E0
07C1E0
07C1E0
07C1E0
07C1E0
07C1E0
07C1E0
0380C0
ENDCHAR
STARTCHAR dollar
ENCODING 36
SWIDTH 571 0
DWIDTH 29 0
BBX 24 33 2 0
BITMAP
001C00
003E00
003E00
003E00
01FFFC
0FFFFF
1FFFFF
3FFFFF
7FFFFE
7C3E00
F83E00
F83E00
F83E00
7C3E00
7FFFF0
3FFFF8
3FFFFC
0FFFFE
03FFFF
003E1F
003E1F
003E1F
003E1F
1FFFFF
7FFFFE
FFFFFE
FFFFFC
7FFFF0
003E00
003E00
003E00
003E00
001C00
ENDCHAR
STARTCHAR percent
ENCODING 37
SWIDTH 571 0
DWIDTH 29 0
BBX 24 33 2 0
BITMAP
7F800F
FFC01F
FFC01F
FFC01F
FFC01F
FFC01F
FFC01F
FFC03F
7F807E
0000FC
0001F8
0003F0
0007E0
000FC0
001F80
003F00
007E00
00FC00
01F800
03F000
07E000
0FC000
1F8000
3F007C
7E01FF
FC01FF
F801FF
F801FF
F801FF
F801FF
F801FF
7801FF
7000FE
ENDCHAR
STARTCHAR ampersand
ENCODING 38
SWIDTH 571 0
DWIDTH 29 0
BBX 24 33 2 0
BITMAP
0FE000
1FF000
3FF800
7FFC00
7EFC00
FC7E00
F83E00
F83E00
F83E00
F83E00
F83E00
FC7E00
7EFC00
7FFC00
3FF800
1FF000
0FE000
1FF000
3FF800
7FFC0F
FEFE1F
FC7F3F
F83FFF
F81FFE
F80FFC
F807F8
F807F8
7C0FFC
7FFFFE
7FFFFF
3FFF3F
1FFE1F
07FC0E
ENDCHAR
STARTCHAR quotesingle
ENCODING 39
SWIDTH 571 0
DWIDTH 29 0
BBX 5 9 12 24
BITMAP
70
F8
F8
F8
F8
F8
F8
F8
70
ENDCHAR
STARTCHAR parenleft
ENCODING 40
SWIDTH 571 0
DWIDTH 29 0
BBX 9 33 12 0
BITMAP
0F80
3F80
7F80
7F80
FE00
F800
F800
F800
F800
F800
F800
F800
F800
F800
F800
F800
F800
F800
F800
F800
F800
F800
F800
F800
F800
F800
F800
F800
FF00
7F80
3F80
1F80
0F00
ENDCHAR
STARTCHAR parenright
ENCODING 41
SWIDTH 571 0
DWIDTH 29 0
BBX 10 33 7 0
BITMAP
7C00
FE00
FF00
7F80
1F80
0FC0
07C0
07C0
07C0
07C0
07C0
07C0
07C0
07C0
07C0
07C0
07C0
07C0
07C0
07C0
07C0
07C0
07C0
07C0
07C0
07C0
07C0
0F80
7F80
FF80
FF00
FE00
7800
ENDCHAR
STARTCHAR asterisk
ENCODING 42
SWIDTH 571 0
DWIDTH 29 0
BBX 24 23 2 10
BITMAP
0381E0
07C1E0
07C3E0
03E3E0
03E7C0
01F7C0
01FF80
00FF80
00FF00
3FFFFE
7FFFFF
FFFFFF
7FFFFF
7FFFFE
00FF00
00FF80
01FF80
01F7C0
03E7C0
03E3E0
07C3E0
07C1E0
0381E0
ENDCHAR
STARTCHAR plus
ENCODING 43
SWIDTH 571 0
DWIDTH 29 0
BBX 24 24 2 5
BITMAP
000800
003C00
003E00
003E00
003E00
003E00
003E00
003E00
003E00
003E00
7FFFFE
7FFFFF
FFFFFF
7FFFFF
3FFFFE
003E00
003E00
003E00
003E00
003E00
003E00
003E00
003E00
001C00
ENDCHAR
STARTCHAR comma
ENCODING 44
SWIDTH 571 0
DWIDTH 29 0
BBX 10 15 7 -5
BITMAP
3E00
7F80
FFC0
FFC0
FFC0
FFC0
FFC0
FFC0
FFC0
FF80
FF00
FE00
FC00
F800
7000
ENDCHAR
STARTCHAR hyphen
ENCODING 45
SWIDTH 571 0
DWIDTH 29 0
BBX 24 5 2 14
BITMAP
7FFFFE
7FFFFF
FFFFFF
7FFFFF
3FFFFE
ENDCHAR
STARTCHAR period
ENCODING 46
SWIDTH 571 0
DWIDTH 29 0
BBX 10 10 7 0
BITMAP
3E00
7F80
FFC0
FFC0
FFC0
FFC0
FFC0
FFC0
FFC0
7F80
ENDCHAR
STARTCHAR slash
ENCODING 47
SWIDTH 571 0
DWIDTH 29 0
BBX 24 33 2 0
BITMAP
00000F
00001F
00001F
00001F
00001F
00001F
00001F
00003F
00007E
0000FC
0001F8
0003F0
0007E0
000FC0
001F80
003F00
007E00
00FC00
01F800
03F000
07E000
0FC000
1F8000
3F0000
7E0000
FC0000
F80000
F80000
F80000
F80000
F80000
780000
700000
ENDCHAR
STARTCHAR zero
ENCODING 48
SWIDTH 571 0
DWIDTH 29 0
BBX 24 33 2 0
BITMAP
0FFFF0
1FFFFC
3FFFFE
7FFFFE
7E007F
FC001F
F8001F
F8001F
F8003F
F800FF
F801FF
F803FF
F807FF
F80FFF
F81FDF
F83F9F
F87F1F
F8FC1F
FBF81F
FFF01F
FFE01F
FFC01F
FF801F
FF001F
FE001F
FC001F
F8001F
7C001F
7FFFFF
7FFFFE
3FFFFC
1FFFF8
07FFF0
ENDCHAR
STARTCHAR one
ENCODING 49
SWIDTH 571 0
DWIDTH 29 0
BBX 14 33 7 0
BITMAP
0780
0FC0
1FC0
3FC0
7FC0
7FC0
FFC0
FFC0
77C0
07C0
07C0
07C0
07C0
07C0
07C0
07C0
07C0
07C0
07C0
07C0
07C0
07C0
07C0
07C0
07C0
07C0
07C0
07C0
7FF8
FFFC
FFFC
FFFC
7FF8
ENDCHAR
STARTCHAR two
ENCODING 50
SWIDTH 571 0
DWIDTH 29 0
BBX 24 33 2 0
BITMAP
0FFFF0
1FFFFC
3FFFFE
7FFFFE
7E007F
FC001F
F8001F
F8001F
70001F
00001F
00001F
00003F
00007F
0000FE
0001FC
0003F8
0007F0
000FE0
001FC0
003F80
007F00
00FE00
00FC00
01F800
03F000
07E000
0FC000
1F8000
3FFFFE
7FFFFF
FFFFFF
7FFFFF
7FFFFE
ENDCHAR
STARTCHAR three
ENCODING 51
SWIDTH 571 0
DWIDTH 29 0
BBX 24 33 2 0
BITMAP
0FFFF0
1FFFFC
3FFFFE
7FFFFE
7E007F
FC001F
F8001F
F8001F
70001F
00001F
00001F
00001F
00001F
00003F
001FFF
003FFE
003FFC
003FFE
001FFF
00001F
00001F
00001F
00001F
00001F
78001F
F8001F
F8001F
7C001F
7FFFFF
7FFFFE
3FFFFC
1FFFF8
07FFF0
ENDCHAR
STARTCHAR four
ENCODING 52
SWIDTH 571 0
DWIDTH 29 0
BBX 24 33 2 0
BITMAP
0001E0
0001E0
0001E0
0001E0
2001E0
7801E0
F801E0
F801E0
F801E0
F801E0
F801E0
F801E0
F801E0
F801E0
F801E0
F801E0
F801E0
F801E0
F801E0
FFFFFF
FFFFFF
FFFFFF
7FFFFF
0001E0
0001E0
0001E0
0001E0
0001E0
0001E0
0001E0
0001E0
0001E0
0000C0
ENDCHAR
STARTCHAR five
ENCODING 53
SWIDTH 571 0
DWIDTH 29 0
BBX 24 33 2 0
BITMAP
7FFFFF
FFFFFF
FFFFFF
FFFFFF
F80000
F80000
F80000
F80000
F80000
F80000
F80000
F80000
F80000
F80000
FFFFF0
FFFFF8
FFFFFC
7FFFFE
3FFFFF
00001F
00001F
00001F
00001F
00001F
00001F
00001F
00001F
00001F
3FFFFF
7FFFFE
FFFFFC
7FFFF8
7FFFF0
ENDCHAR
STARTCHAR six
ENCODING 54
SWIDTH 571 0
DWIDTH 29 0
BBX 24 33 2 0
BITMAP
0FFFE0
1FFFE0
3FFFE0
7FFFE0
7E0000
FC0000
F80000
F80000
F80000
F80000
F80000
F80000
F80000
F80000
FFFFF0
FFFFFC
FFFFFE
FFFFFE
FFFFFF
F8001F
F8001F
F8001F
F8001F
F8001F
F8001F
F8001F
F8001F
7C001F
7FFFFF
7FFFFE
3FFFFC
1FFFF8
07FFF0
ENDCHAR
STARTCHAR seven
ENCODING 55
SWIDTH 571 0
DWIDTH 29 0
BBX 24 33 2 0
BITMAP
7FFFFF
FFFFFF
FFFFFF
7FFFFF
00001F
00001F
00001F
00001F
00001F
00001F
00001F
00003F
00007F
0000FE
0001FC
0003F8
0007F0
000FE0
001FC0
003F80
007F00
00FE00
00FC00
01F800
03F000
07E000
0FC000
1F8000
3F0000
7E0000
FC0000
780000
700000
ENDCHAR
STARTCHAR eight
ENCODING 56
SWIDTH 571 0
DWIDTH 29 0
BBX 24 33 2 0
BITMAP
0FFFF0
1FFFFC
3FFFFE
7FFFFE
7E007F
FC001F
F8001F
F8001F
F8001F
F8001F
F8001F
F8001F
F8001F
7C003F
7FFFFF
3FFFFE
3FFFFC
7FFFFE
7FFFFF
7C001F
F8001F
F8001F
F8001F
F8001F
F8001F
F8001F
F8001F
7C001F
7FFFFF
7FFFFE
3FFFFC
1FFFF8
07FFF0
ENDCHAR
STARTCHAR nine
ENCODING 57
SWIDTH 571 0
DWIDTH 29 0
BBX 24 33 2 0
BITMAP
0FFFF0
1FFFFC
3FFFFE
7FFFFE
7E007F
FC001F
F8001F
F8001F
F8001F
F8001F
F8001F
F8001F
F8001F
7C001F
7FFFFF
7FFFFF
3FFFFF
1FFFFF
03FFFF
00001F
00001F
00001F
00001F
00001F
00001F
00001F
00001F
00001F
3FFFFF
7FFFFE
FFFFFC
7FFFF8
7FFFF0
ENDCHAR
STARTCHAR colon
ENCODING 58
SWIDTH 571 0
DWIDTH 29 0
BBX 10 29 7 0
BITMAP
3F00
7F80
FFC0
FFC0
FFC0
FFC0
FFC0
FFC0
FF80
7F80
0000
0000
0000
0000
0000
0000
0000
0000
0000
3E00
7F80
FFC0
FFC0
FFC0
FFC0
FFC0
FFC0
FFC0
7F80
ENDCHAR
STARTCHAR semicolon
ENCODING 59
SWIDTH 571 0
DWIDTH 29 0
BBX 10 34 7 -5
BITMAP
3F00
7F80
FFC0
FFC0
FFC0
FFC0
FFC0
FFC0
FF80
7F80
0000
0000
0000
0000
0000
0000
0000
0000
0000
3E00
7F80
FFC0
FFC0
FFC0
FFC0
FFC0
FFC0
FFC0
FF80
FF00
FE00
FC00
F800
7000
ENDCHAR
STARTCHAR less
ENCODING 60
SWIDTH 571 0
DWIDTH 29 0
BBX 19 33 2 0
BITMAP
0001E0
0003E0
0007E0
000FE0
001FC0
003F80
007F00
00FE00
01FC00
03F800
07F000
0FE000
1FC000
3F8000
7F0000
7E0000
FC0000
7E0000
3F0000
1F8000
0FC000
07E000
03F000
01F800
00FC00
007E00
003F00
001F80
000FC0
0007E0
0003E0
0001E0
0000C0
ENDCHAR
STARTCHAR equal
ENCODING 61
SWIDTH 571 0
DWIDTH 29 0
BBX 24 14 2 10
BITMAP
3FFFFE
7FFFFF
FFFFFF
7FFFFF
7FFFFE
000000
000000
000000
000000
000000
7FFFFF
FFFFFF
FFFFFF
7FFFFF
ENDCHAR
STARTCHAR greater
ENCODING 62
SWIDTH 571 0
DWIDTH 29 0
BBX 19 33 7 0
BITMAP
700000
F80000
FC0000
7E0000
3F0000
1F8000
0FC000
07E000
03F000
01F800
00FC00
007E00
003F00
001F80
000FC0
0007E0
0007E0
000FE0
001FC0
003F80
007F00
00FE00
01FC00
03F800
07F000
0FE000
1FC000
3F8000
7F0000
FE0000
FC0000
F80000
700000
ENDCHAR
STARTCHAR question
ENCODING 63
SWIDTH 571 0
DWIDTH 29 0
BBX 24 33 2 0
BITMAP
0FFFF0
1FFFFC
3FFFFE
7FFFFE
7E007F
FC001F
F8001F
F8001F
70001F
00001F
00001F
00003F
00007F
0000FE
0001FC
0003F8
0007F0
0007E0
000FC0
001F80
003F00
003E00
003C00
000000
000000
000000
000000
000000
001800
003C00
003E00
003E00
001C00
ENDCHAR
STARTCHAR at
ENCODING 64
SWIDTH 571 0
DWIDTH 29 0
BBX 24 33 2 0
BITMAP
0FFFF0
1FFFFC
3FFFFE
7FFFFE
7E007F
FC001F
F8001F
F8001F
F8001F
F801FF
F807FF
F80FFF
F81FFF
F83FFF
F83F3F
F83E1F
F83E1F
F83E1F
F83F3F
F81FFE
F81FFE
F80FFC
F803F8
F80000
F80000
F80000
F80000
7C0000
7FFFFE
7FFFFF
3FFFFF
1FFFFF
07FFFE
ENDCHAR
STARTCHAR A
ENCODING 65
SWIDTH 571 0
DWIDTH 29 0
BBX 24 33 2 0
BITMAP
0FFFF0
1FFFFC
3FFFFE
7FFFFE
7E007F
FC001F
F8001F
F8001F
F8001F
F8001F
F8001F
F8001F
F8001F
F8001F
FFFFFF
FFFFFF
FFFFFF
FFFFFF
FFFFFF
F8001F
F8001F
F8001F
F8001F
F8001F
F8001F
F8001F
F8001F
F8001F
F8001F
F8001F
F8001F
78000F
70000E
ENDCHAR
STARTCHAR B
ENCODING 66
SWIDTH 571 0
DWIDTH 29 0
BBX 24 33 2 0
BITMAP
7FFFF0
FFFFFC
FFFFFE
FFFFFE
F8007F
F8001F
F8001F
F8001F
F8001F
F8001F
F8001F
F8001F
F8001F
F8003F
FFFFFF
FFFFFE
FFFFFC
FFFFFE
FFFFFF
F8001F
F8001F
F8001F
F8001F
F8001F
F8001F
F8001F
F8001F
F8001F
FFFFFF
FFFFFE
FFFFFC
7FFFF8
7FFFF0
ENDCHAR
STARTCHAR C
ENCODING 67
SWIDTH 571 0
DWIDTH 29 0
BBX 24 33 2 0
BITMAP
0FFFF0
1FFFFC
3FFFFE
7FFFFE
7E007F
FC001F
F8001F
F8000F
F8000E
F80000
F80000
F80000
F80000
F80000
F80000
F80000
F80000
F80000
F80000
F80000
F80000
F80000
F80000
F80000
F8000F
F8001F
F8001F
7C001F
7FFFFF
7FFFFE
3FFFFC
1FFFF8
07FFF0
ENDCHAR
STARTCHAR D
ENCODING 68
SWIDTH 571 0
DWIDTH 29 0
BBX 24 33 2 0
BITMAP
7FFFF0
FFFFFC
FFFFFE
FFFFFE
F8007F
F8001F
F8001F
F8001F
F8001F
F8001F
F8001F
F8001F
F8001F
F8001F
F8001F
F8001F
F8001F
F8001F
F8001F
F8001F
F8001F
F8001F
F8001F
F8001F
F8001F
F8001F
F8001F
F8001F
FFFFFF
FFFFFE
FFFFFC
7FFFF8
7FFFF0
ENDCHAR
STARTCHAR E
ENCODING 69
SWIDTH 571 0
DWIDTH 29 0
BBX 24 33 2 0
BITMAP
7FFFFF
FFFFFF
FFFFFF
FFFFFF
F80000
F80000
F80000
F80000
F80000
F80000
F80000
F80000
F80000
F80000
FFFFE0
FFFFE0
FFFFE0
FFFFE0
FFFFC0
F80000
F80000
F80000
F80000
F80000
F80000
F80000
F80000
F80000
FFFFFE
FFFFFF
FFFFFF
7FFFFF
7FFFFE
ENDCHAR
STARTCHAR F
ENCODING 70
SWIDTH 571 0
DWIDTH 29 0
BBX 24 33 2 0
BITMAP
7FFFFF
FFFFFF
FFFFFF
FFFFFF
F80000
F80000
F80000
F80000
F80000
F80000
F80000
F80000
F80000
F80000
FFFFE0
FFFFE0
FFFFE0
FFFFE0
FFFFC0
F80000
F80000
F80000
F80000
F80000
F80000
F80000
F80000
F80000
F80000
F80000
F80000
780000
700000
ENDCHAR
STARTCHAR G
ENCODING 71
SWIDTH 571 0
DWIDTH 29 0
BBX 24 33 2 0
BITMAP
0FFFF0
1FFFFC
3FFFFE
7FFFFE
7E007F
FC001F
F8001F
F8000F
F8000E
F80000
F80000
F80000
F80000
F80000
F800FE
F801FF
F801FF
F801FF
F800FF
F8001F
F8001F
F8001F
F8001F
F8001F
F8001F
F8001F
F8001F
7C001F
7FFFFF
7FFFFE
3FFFFC
1FFFF8
07FFF0
ENDCHAR
STARTCHAR H
ENCODING 72
SWIDTH 571 0
DWIDTH 29 0
BBX 24 33 2 0
BITMAP
78000F
F8001F
F8001F
F8001F
F8001F
F8001F
F8001F
F8001F
F8001F
F8001F
F8001F
F8001F
F8001F
F8001F
FFFFFF
FFFFFF
FFFFFF
FFFFFF
FFFFFF
F8001F
F8001F
F8001F
F8001F
F8001F
F8001F
F8001F
F8001F
F8001F
F8001F
F8001F
F8001F
78000F
70000E
ENDCHAR
STARTCHAR I
ENCODING 73
SWIDTH 571 0
DWIDTH 29 0
BBX 14 33 7 0
BITMAP
7FFC
FFFC
FFFC
7FFC
07C0
07C0
07C0
07C0
07C0
07C0
07C0
07C0
07C0
07C0
07C0
07C0
07C0
07C0
07C0
07C0
07C0
07C0
07C0
07C0
07C0
07C0
07C0
07C0
7FF8
FFFC
FFFC
FFFC
7FF8
ENDCHAR
STARTCHAR J
ENCODING 74
SWIDTH 571 0
DWIDTH 29 0
BBX 24 33 2 0
BITMAP
00000F
00001F
00001F
00001F
00001F
00001F
00001F
00001F
00001F
00001F
00001F
00001F
00001F
00001F
00001F
00001F
00001F
00001F
00001F
00001F
00001F
00001F
00001F
00001F
78001F
F8001F
F8001F
7C001F
7FFFFF
7FFFFE
3FFFFC
1FFFF8
07FFF0
ENDCHAR
STARTCHAR K
ENCODING 75
SWIDTH 571 0
DWIDTH 29 0
BBX 24 33 2 0
BITMAP
78000F
F8001F
F8003F
F8007F
F800FE
F801FC
F803F8
F807F0
F80FE0
F81FC0
F83F80
F87F00
F8FE00
F9FC00
FBF800
FFF000
FFE000
FFF000
FFF800
FFFC00
FEFE00
FC7F00
F83F80
F81FC0
F80FE0
F807F0
F803F8
F801FC
F800FE
F8007F
F8003F
78001F
70000E
ENDCHAR
STARTCHAR L
ENCODING 76
SWIDTH 571 0
DWIDTH 29 0
BBX 24 33 2 0
BITMAP
780000
F80000
F80000
F80000
F80000
F80000
F80000
F80000
F80000
F80000
F80000
F80000
F80000
F80000
F80000
F80000
F80000
F80000
F80000
F80000
F80000
F80000
F80000
F80000
F80000
F80000
F80000
F80000
FFFFFE
FFFFFF
FFFFFF
7FFFFF
7FFFFE
ENDCHAR
STARTCHAR M
ENCODING 77
SWIDTH 571 0
DWIDTH 29 0
BBX 24 33 2 0
BITMAP
78000F
FC001F
FE003F
FF007F
FF80FF
FFC1FF
FFE3FF
FFF7FF
FBFFFF
F9FFDF
F8FF9F
F87F1F
F83E1F
F81C1F
F8001F
F8001F
F8001F
F8001F
F8001F
F8001F
F8001F
F8001F
F8001F
F8001F
F8001F
F8001F
F8001F
F8001F
F8001F
F8001F
F8001F
78000F
70000E
ENDCHAR
STARTCHAR N
ENCODING 78
SWIDTH 571 0
DWIDTH 29 0
BBX 24 33 2 0
BITMAP
78000F
FC001F
FE001F
FF001F
FF801F
FFC01F
FFE01F
FFF01F
FBF81F
F9FC1F
F8FE1F
F87F1F
F83F9F
F81FDF
F80FFF
F807FF
F803FF
F801FF
F800FF
F8007F
F8003F
F8001F
F8001F
F8001F
F8001F
F8001F
F8001F
F8001F
F8001F
F8001F
F8001F
78000F
70000E
ENDCHAR
STARTCHAR O
ENCODING 79
SWIDTH 571 0
DWIDTH 29 0
BBX 24 33 2 0
BITMAP
0FFFF0
1FFFFC
3FFFFE
7FFFFE
7E007F
FC001F
F8001F
F8001F
F8001F
F8001F
F8001F
F8001F
F8001F
F8001F
F8001F
F8001F
F8001F
F8001F
F8001F
F8001F
F8001F
F8001F
F8001F
F8001F
F8001F
F8001F
F8001F
7C001F
7FFFFF
7FFFFE
3FFFFC
1FFFF8
07FFF0
ENDCHAR
STARTCHAR P
ENCODING 80
SWIDTH 571 0
DWIDTH 29 0
BBX 24 33 2 0
BITMAP
7FFFF0
FFFFFC
FFFFFE
FFFFFE
F8007F
F8001F
F8001F
F8001F
F8001F
F8001F
F8001F
F8001F
F8001F
F8003F
FFFFFF
FFFFFE
FFFFFC
FFFFF8
FFFFE0
F80000
F80000
F80000
F80000
F80000
F80000
F80000
F80000
F80000
F80000
F80000
F80000
780000
700000
ENDCHAR
STARTCHAR Q
ENCODING 81
SWIDTH 571 0
DWIDTH 29 0
BBX 24 33 2 0
BITMAP
0FFFF0
1FFFFC
3FFFFE
7FFFFE
7E007F
FC001F
F8001F
F8001F
F8001F
F8001F
F8001F
F8001F
F8001F
F8001F
F8001F
F8001F
F8001F
F8001F
F8001F
F81C1F
F83E3F
F83F7F
F83FFF
F81FFE
F80FFC
F807F8
F807F8
7C0FFC
7FFFFE
7FFFFF
3FFF3F
1FFE1F
07FC0E
ENDCHAR
STARTCHAR R
ENCODING 82
SWIDTH 571 0
DWIDTH 29 0
BBX 24 33 2 0
BITMAP
7FFFF0
FFFFFC
FFFFFE
FFFFFE
F8007F
F8001F
F8001F
F8001F
F8001F
F8001F
F8001F
F8001F
F8001F
F8003F
FFFFFF
FFFFFE
FFFFFC
FFFFFE
FFFFFF
F8001F
F8001F
F8001F
F8001F
F8001F
F8001F
F8001F
F8001F
F8001F
F8001F
F8001F
F8001F
78000F
70000E
ENDCHAR
STARTCHAR S
ENCODING 83
SWIDTH 571 0
DWIDTH 29 0
BBX 24 33 2 0
BITMAP
0FFFF0
1FFFFC
3FFFFE
7FFFFE
7E007F
FC001F
F8001F
F8000F
F8000E
F80000
F80000
F80000
F80000
7C0000
7FFFF0
7FFFF8
3FFFFC
1FFFFE
03FFFF
00001F
00001F
00001F
00001F
00001F
78001F
F8001F
F8001F
7C001F
7FFFFF
7FFFFE
3FFFFE
1FFFFC
07FFF0
ENDCHAR
STARTCHAR T
ENCODING 84
SWIDTH 571 0
DWIDTH 29 0
BBX 24 33 2 0
BITMAP
7FFFFF
FFFFFF
FFFFFF
7FFFFF
003E00
003E00
003E00
003E00
003E00
003E00
003E00
003E00
003E00
003E00
003E00
003E00
003E00
003E00
003E00
003E00
003E00
003E00
003E00
003E00
003E00
003E00
003E00
003E00
003E00
003E00
003E00
003E00
001C00
ENDCHAR
STARTCHAR U
ENCODING 85
SWIDTH 571 0
DWIDTH 29 0
BBX 24 33 2 0
BITMAP
78000F
F8001F
F8001F
F8001F
F8001F
F8001F
F8001F
F8001F
F8001F
F8001F
F8001F
F8001F
F8001F
F8001F
F8001F
F8001F
F8001F
F8001F
F8001F
F8001F
F8001F
F8001F
F8001F
F8001F
F8001F
F8001F
F8001F
7C001F
7FFFFF
7FFFFE
3FFFFC
1FFFF8
07FFF0
ENDCHAR
STARTCHAR V
ENCODING 86
SWIDTH 571 0
DWIDTH 29 0
BBX 24 33 2 0
BITMAP
78000F
F8001F
F8001F
F8001F
F8001F
F8001F
F8001F
F8001F
F8001F
F8001F
F8001F
F8001F
F8001F
F8001F
F8001F
F8001F
F8001F
F8001F
F8001F
FC001F
FE003F
FF007F
7F80FF
3FC1FE
1FE3FC
0FF7F8
07FFF0
03FFE0
01FFC0
00FF80
007F00
003E00
001C00
ENDCHAR
STARTCHAR W
ENCODING 87
SWIDTH 571 0
DWIDTH 29 0
BBX 24 33 2 0
BITMAP
78000F
F8001F
F8001F
F8001F
F8001F
F8001F
F8001F
F8001F
F8001F
F8001F
F8001F
F8001F
F8001F
F8001F
F81C1F
F83E1F
F83E1F
F83E1F
F83E1F
F83E1F
F83E1F
F83E1F
F83E1F
F83E1F
F83E1F
F83E1F
F83E1F
7C7E1F
7FFFFF
7FFFFE
3FFFFC
1FE7F8
07C3F0
ENDCHAR
STARTCHAR X
ENCODING 88
SWIDTH 571 0
DWIDTH 29 0
BBX 24 33 2 0
BITMAP
78000F
F8001F
F8001F
F8001F
F8001F
F8001F
FC001F
FE003F
7F007E
3F80FC
1FC1F8
0FE3F0
07F7E0
03FFC0
01FF80
00FF00
007F00
00FF80
01FFC0
03FFE0
07E7F0
0FC3F8
1F81FC
3F00FE
7E007F
FC003F
F8001F
F8001F
F8001F
F8001F
F8001F
78000F
70000E
ENDCHAR
STARTCHAR Y
ENCODING 89
SWIDTH 571 0
DWIDTH 29 0
BBX 24 33 2 0
BITMAP
78000F
F8001F
F8001F
F8001F
F8001F
F8001F
FC001F
FE003F
7F007E
3F80FC
1FC1F8
0FE3F0
07F7E0
03FFC0
01FF80
00FF00
007E00
003E00
003E00
003E00
003E00
003E00
003E00
003E00
003E00
003E00
003E00
003E00
003E00
003E00
003E00
003E00
001C00
ENDCHAR
STARTCHAR Z
ENCODING 90
SWIDTH 571 0
DWIDTH 29 0
BBX 24 33 2 0
BITMAP
7FFFFF
FFFFFF
FFFFFF
7FFFFF
00001F
00001F
00001F
00003F
00007E
0000FC
0001F8
0003F0
0007E0
000FC0
001F80
003F00
007E00
00FC00
01F800
03F000
07E000
0FC000
1F8000
3F0000
7E0000
FC0000
F80000
F80000
FFFFFE
FFFFFF
FFFFFF
7FFFFF
7FFFFE
ENDCHAR
STARTCHAR bracketleft
ENCODING 91
SWIDTH 571 0
DWIDTH 29 0
BBX 9 33 12 0
BITMAP
7F80
FF80
FF80
FF80
F800
F800
F800
F800
F800
F800
F800
F800
F800
F800
F800
F800
F800
F800
F800
F800
F800
F800
F800
F800
F800
F800
F800
F800
FF00
FF80
FF80
FF80
7F00
ENDCHAR
STARTCHAR backslash
ENCODING 92
SWIDTH 571 0
DWIDTH 29 0
BBX 24 33 2 0
BITMAP
780000
F80000
F80000
F80000
F80000
F80000
FC0000
FE0000
7F0000
3F8000
1FC000
0FE000
07F000
03F800
01FC00
00FE00
007F00
003F80
001FC0
000FE0
0007F0
0003F8
0001FC
0000FE
00007F
00003F
00001F
00001F
00001F
00001F
00001F
00000F
00000E
ENDCHAR
STARTCHAR bracketright
ENCODING 93
SWIDTH 571 0
DWIDTH 29 0
BBX 10 33 7 0
BITMAP
7F80
FFC0
FFC0
7FC0
07C0
07C0
07C0
07C0
07C0
07C0
07C0
07C0
07C0
07C0
07C0
07C0
07C0
07C0
07C0
07C0
07C0
07C0
07C0
07C0
07C0
07C0
07C0
07C0
7FC0
FFC0
FFC0
FFC0
7F80
ENDCHAR
STARTCHAR asciicircum
ENCODING 94
SWIDTH 571 0
DWIDTH 29 0
BBX 24 14 2 19
BITMAP
003C00
007E00
00FF00
01FF80
03FFC0
07F7E0
0FE7F0
1FC3F8
3F81FC
7F00FE
7E007F
FC003F
78001F
70000E
ENDCHAR
STARTCHAR underscore
ENCODING 95
SWIDTH 571 0
DWIDTH 29 0
BBX 24 5 2 -5
BITMAP
7FFFFE
7FFFFF
FFFFFF
7FFFFF
3FFFFE
ENDCHAR
STARTCHAR grave
ENCODING 96
SWIDTH 571 0
DWIDTH 29 0
BBX 9 9 12 24
BITMAP
7000
F800
FC00
FE00
7F00
3F80
1F80
0F80
0780
ENDCHAR
STARTCHAR a
ENCODING 97
SWIDTH 571 0
DWIDTH 29 0
BBX 24 24 2 0
BITMAP
03FFE0
07FFF8
07FFFC
07FFFE
03FFFF
00003F
00001F
00001F
00001F
00001F
0FFFFF
1FFFFF
3FFFFF
7FFFFF
7E001F
FC001F
F8001F
F8001F
7C001F
7FFFFF
7FFFFF
3FFFFF
1FFFFF
07FFFE
ENDCHAR
STARTCHAR b
ENCODING 98
SWIDTH 571 0
DWIDTH 29 0
BBX 24 33 2 0
BITMAP
780000
F80000
F80000
F80000
F80000
F80000
F80000
F80000
F80000
FFFFE0
FFFFF8
FFFFFC
FFFFFE
FFFFFF
F8003F
F8001F
F8001F
F8001F
F8001F
F8001F
F8001F
F8001F
F8001F
F8001F
F8001F
F8001F
F8001F
F8001F
FFFFFF
FFFFFE
FFFFFC
7FFFF8
7FFFF0
ENDCHAR
STARTCHAR c
ENCODING 99
SWIDTH 571 0
DWIDTH 29 0
BBX 24 24 2 0
BITMAP
03FFE0
1FFFF8
3FFFFC
3FFFFE
7FFFFF
7C003F
F8001F
F8001F
F8000F
F80006
F80000
F80000
F80000
F80000
F80000
F8000F
F8001F
F8001F
7C001F
7FFFFF
7FFFFE
3FFFFC
1FFFF8
07FFF0
ENDCHAR
STARTCHAR d
ENCODING 100
SWIDTH 571 0
DWIDTH 29 0
BBX 24 33 2 0
BITMAP
00000F
00001F
00001F
00001F
00001F
00001F
00001F
00001F
00001F
03FFFF
1FFFFF
3FFFFF
3FFFFF
7FFFFF
7C001F
F8001F
F8001F
F8001F
F8001F
F8001F
F8001F
F8001F
F8001F
F8001F
F8001F
F8001F
F8001F
7C001F
7FFFFF
7FFFFF
3FFFFF
1FFFFF
07FFFE
ENDCHAR
STARTCHAR e
ENCODING 101
SWIDTH 571 0
DWIDTH 29 0
BBX 24 24 2 0
BITMAP
03FFE0
1FFFF8
3FFFFC
3FFFFE
7FFFFF
7C003F
F8001F
F8001F
F8001F
F8001F
FFFFFF
FFFFFF
FFFFFF
FFFFFF
F80000
F80000
F80000
F80000
7C0000
7FFFC0
7FFFE0
3FFFE0
1FFFE0
07FFC0
ENDCHAR
STARTCHAR f
ENCODING 102
SWIDTH 571 0
DWIDTH 29 0
BBX 19 33 7 0
BITMAP
007FE0
01FFE0
03FFE0
03FFE0
07F000
07C000
07C000
07C000
07C000
7FF800
FFFC00
FFFC00
FFFC00
7FF800
07C000
07C000
07C000
07C000
07C000
07C000
07C000
07C000
07C000
07C000
07C000
07C000
07C000
07C000
07C000
07C000
07C000
07C000
038000
ENDCHAR
STARTCHAR g
ENCODING 103
SWIDTH 571 0
DWIDTH 29 0
BBX 24 29 2 -5
BITMAP
03FFFE
1FFFFF
3FFFFF
3FFFFF
7FFFFF
7C001F
F8001F
F8001F
F8001F
F8001F
F8001F
F8001F
F8001F
7C001F
7FFFFF
7FFFFF
3FFFFF
1FFFFF
0FFFFF
00001F
00001F
00001F
00001F
00003F
03FFFF
07FFFE
07FFFC
07FFF8
03FFE0
ENDCHAR
STARTCHAR h
ENCODING 104
SWIDTH 571 0
DWIDTH 29 0
BBX 24 33 2 0
BITMAP
780000
F80000
F80000
F80000
F80000
F80000
F80000
F80000
F80000
FFFFE0
FFFFF8
FFFFFC
FFFFFE
FFFFFF
F8003F
F8001F
F8001F
F8001F
F8001F
F8001F
F8001F
F8001F
F8001F
F8001F
F8001F
F8001F
F8001F
F8001F
F8001F
F8001F
F8001F
78000F
70000E
ENDCHAR
STARTCHAR i
ENCODING 105
SWIDTH 571 0
DWIDTH 29 0
BBX 14 33 7 0
BITMAP
0380
07C0
07C0
0780
0000
0000
0000
0000
0000
7F00
FF80
FFC0
FFC0
7FC0
07C0
07C0
07C0
07C0
07C0
07C0
07C0
07C0
07C0
07C0
07C0
07C0
07C0
07C0
7FF8
FFFC
FFFC
FFFC
7FF8
ENDCHAR
STARTCHAR j
ENCODING 106
SWIDTH 571 0
DWIDTH 29 0
BBX 19 38 2 -5
BITMAP
0001E0
0001E0
0001E0
0001E0
000000
000000
000000
000000
000000
001FC0
003FE0
003FE0
003FE0
001FE0
0001E0
0001E0
0001E0
0001E0
0001E0
0001E0
0001E0
0001E0
0001E0
0001E0
0001E0
0001E0
0001E0
0001E0
3001E0
7801E0
F801E0
F803E0
7C03E0
7FFFE0
3FFFC0
3FFF80
0FFF00
03FC00
ENDCHAR
STARTCHAR k
ENCODING 107
SWIDTH 571 0
DWIDTH 29 0
BBX 19 33 7 0
BITMAP
700000
F80000
F80000
F80000
F80000
F80000
F80000
F80000
F80000
F800C0
F801E0
F803E0
F807E0
F81FC0
F83F80
F87F00
F8FE00
F9FC00
FBF800
FFF000
FFE000
FFE000
FFF000
FFF800
FFFC00
FCFE00
F87F00
F83F80
F81FC0
F80FE0
F807E0
F803E0
7001C0
ENDCHAR
STARTCHAR l
ENCODING 108
SWIDTH 571 0
DWIDTH 29 0
BBX 14 33 7 0
BITMAP
7F80
FFC0
FFC0
7FC0
07C0
07C0
07C0
07C0
07C0
07C0
07C0
07C0
07C0
07C0
07C0
07C0
07C0
07C0
07C0
07C0
07C0
07C0
07C0
07C0
07C0
07C0
07C0
07C0
7FF8
FFFC
FFFC
FFFC
7FF8
ENDCHAR
STARTCHAR m
ENCODING 109
SWIDTH 571 0
DWIDTH 29 0
BBX 24 24 2 0
BITMAP
3FC1E0
7FF7F8
FFFFFC
FFFFFE
FFFFFF
F87F3F
F83E1F
F83E1F
F83E1F
F83E1F
F83E1F
F83E1F
F83E1F
F83E1F
F83E1F
F83E1F
F83E1F
F83E1F
F83E1F
F83E1F
F83E1F
F83E1F
783E0F
701C0E
ENDCHAR
STARTCHAR n
ENCODING 110
SWIDTH 571 0
DWIDTH 29 0
BBX 24 24 2 0
BITMAP
3FFFE0
7FFFF8
FFFFFC
FFFFFE
FFFFFF
F8003F
F8001F
F8001F
F8001F
F8001F
F8001F
F8001F
F8001F
F8001F
F8001F
F8001F
F8001F
F8001F
F8001F
F8001F
F8001F
F8001F
78000F
70000E
ENDCHAR
STARTCHAR o
ENCODING 111
SWIDTH 571 0
DWIDTH 29 0
BBX 24 24 2 0
BITMAP
03FFE0
1FFFF8
3FFFFC
3FFFFE
7FFFFF
7C003F
F8001F
F8001F
F8001F
F8001F
F8001F
F8001F
F8001F
F8001F
F8001F
F8001F
F8001F
F8001F
7C001F
7FFFFF
7FFFFE
3FFFFC
1FFFF8
07FFF0
ENDCHAR
STARTCHAR p
ENCODING 112
SWIDTH 571 0
DWIDTH 29 0
BBX 24 29 2 -5
BITMAP
3FFFE0
7FFFF8
FFFFFC
FFFFFE
FFFFFF
F8003F
F8001F
F8001F
F8001F
F8001F
F8001F
F8001F
F8001F
F8001F
FFFFFF
FFFFFE
FFFFFE
FFFFFC
FFFFF0
F80000
F80000
F80000
F80000
F80000
F80000
F80000
F80000
780000
300000
ENDCHAR
STARTCHAR q
ENCODING 113
SWIDTH 571 0
DWIDTH 29 0
BBX 24 29 2 -5
BITMAP
03FFFE
1FFFFF
3FFFFF
3FFFFF
7FFFFF
7C001F
F8001F
F8001F
F8001F
F8001F
F8001F
F8001F
F8001F
7C001F
7FFFFF
7FFFFF
3FFFFF
1FFFFF
0FFFFF
00001F
00001F
00001F
00001F
00001F
00001F
00001F
00001F
00000F
000006
ENDCHAR
STARTCHAR r
ENCODING 114
SWIDTH 571 0
DWIDTH 29 0
BBX 19 24 7 0
BITMAP
7FFC00
FFFF00
FFFF80
FFFFC0
FFFFE0
F807E0
F803E0
F803E0
F801E0
F800C0
F80000
F80000
F80000
F80000
F80000
F80000
F80000
F80000
F80000
F80000
F80000
F80000
F80000
700000
ENDCHAR
STARTCHAR s
ENCODING 115
SWIDTH 571 0
DWIDTH 29 0
BBX 24 24 2 0
BITMAP
03FFFE
1FFFFF
3FFFFF
3FFFFF
7FFFFE
7C0000
F80000
F80000
F80000
7E0000
7FFFF0
3FFFFC
1FFFFE
0FFFFE
00007F
00001F
00001F
00001F
00001F
3FFFFF
7FFFFE
FFFFFC
7FFFF8
7FFFF0
ENDCHAR
STARTCHAR t
ENCODING 116
SWIDTH 571 0
DWIDTH 29 0
BBX 19 33 7 0
BITMAP
038000
07C000
07C000
07C000
07C000
07C000
07C000
07C000
07C000
7FFFC0
FFFFE0
FFFFE0
FFFFE0
7FFFC0
07C000
07C000
07C000
07C000
07C000
07C000
07C000
07C000
07C000
07C000
07C000
07C000
07C000
07C000
07FFC0
03FFE0
01FFE0
00FFE0
007FC0
ENDCHAR
STARTCHAR u
ENCODING 117
SWIDTH 571 0
DWIDTH 29 0
BBX 24 24 2 0
BITMAP
300006
78000F
F8001F
F8001F
F8001F
F8001F
F8001F
F8001F
F8001F
F8001F
F8001F
F8001F
F8001F
F8001F
F8001F
F8001F
F8001F
F8001F
7C001F
7FFFFF
7FFFFF
3FFFFF
1FFFFF
07FFFE
ENDCHAR
STARTCHAR v
ENCODING 118
SWIDTH 571 0
DWIDTH 29 0
BBX 24 24 2 0
BITMAP
300006
78000F
F8001F
F8001F
F8001F
F8001F
F8001F
F8001F
F8001F
F8001F
FC001F
FE003F
FF007F
7F80FF
3FC1FE
1FE3FC
0FF7F8
07FFF0
03FFE0
01FFC0
00FF80
007F00
003E00
001C00
ENDCHAR
STARTCHAR w
ENCODING 119
SWIDTH 571 0
DWIDTH 29 0
BBX 24 24 2 0
BITMAP
300006
78000F
F8001F
F8001F
F8001F
F81C1F
F83E1F
F83E1F
F83E1F
F83E1F
F83E1F
F83E1F
F83E1F
F83E1F
F83E1F
F83E1F
F83E1F
F83E1F
7C7E1F
7FFFFF
7FFFFE
3FFFFC
1FE7F8
07C3F0
ENDCHAR
STARTCHAR x
ENCODING 120
SWIDTH 571 0
DWIDTH 29 0
BBX 24 24 2 0
BITMAP
300006
78000F
FC001F
7E007F
7F00FE
3F81FC
1FC3F8
0FE7F0
07FFE0
03FFC0
01FF80
00FF00
00FF00
01FF80
03FFC0
07FFE0
0FE7F0
0FC3F8
1F81FC
3F00FE
7E007F
FC003F
78001F
70000E
ENDCHAR
STARTCHAR y
ENCODING 121
SWIDTH 571 0
DWIDTH 29 0
BBX 24 29 2 -5
BITMAP
300006
78000F
F8001F
F8001F
F8001F
F8001F
F8001F
F8001F
F8001F
F8001F
F8001F
F8001F
F8001F
7C001F
7FFFFF
7FFFFF
3FFFFF
1FFFFF
0FFFFF
00001F
00001F
00001F
00001F
00003F
03FFFF
07FFFE
07FFFC
07FFF8
03FFE0
ENDCHAR
STARTCHAR z
ENCODING 122
SWIDTH 571 0
DWIDTH 29 0
BBX 24 24 2 0
BITMAP
3FFFFE
7FFFFF
FFFFFF
7FFFFF
7FFFFE
0001FC
0003F8
0007F0
000FE0
001FC0
003F80
007F00
00FE00
01FC00
01F800
03F000
07E000
0FC000
1F8000
3FFFFE
7FFFFF
FFFFFF
7FFFFF
7FFFFE
ENDCHAR
STARTCHAR braceleft
ENCODING 123
SWIDTH 571 0
DWIDTH 29 0
BBX 14 33 7 0
BITMAP
007C
01FC
03FC
03FC
07F0
07C0
07C0
07C0
07C0
07C0
07C0
07C0
07C0
0F80
7F80
FF00
FF00
FF00
3F80
0F80
07C0
07C0
07C0
07C0
07C0
07C0
07C0
07C0
07F8
03FC
01FC
00FC
0078
ENDCHAR
STARTCHAR bar
ENCODING 124
SWIDTH 571 0
DWIDTH 29 0
BBX 5 33 12 0
BITMAP
70
F8
F8
F8
F8
F8
F8
F8
F8
F8
F8
F8
F8
F8
F8
F8
F8
F8
F8
F8
F8
F8
F8
F8
F8
F8
F8
F8
F8
F8
F8
F8
70
ENDCHAR
STARTCHAR braceright
ENCODING 125
SWIDTH 571 0
DWIDTH 29 0
BBX 14 33 7 0
BITMAP
7C00
FE00
FF00
7F80
1F80
0FC0
07C0
07C0
07C0
07C0
07C0
07C0
07C0
07E0
03FC
03FC
01FC
03FC
07F8
07C0
07C0
07C0
07C0
07C0
07C0
07C0
07C0
0F80
7F80
FF80
FF00
FE00
7800
ENDCHAR
STARTCHAR asciitilde
ENCODING 126
SWIDTH 571 0
DWIDTH 29 0
BBX 24 14 2 19
BITMAP
0FE000
1FF000
3FF800
7FFC00
7EFC04
FC7E0F
F83E1F
F83E1F
703E1F
003FFF
001FFE
000FFC
0007F8
0001E0
ENDCHAR
STARTCHAR uni007F
ENCODING 127
SWIDTH 571 0
DWIDTH 29 0
BBX 24 33 2 0
BITMAP
7FFFFF
FFFFFF
FFFFFF
FFFFFF
FFFFFF
FFFFFF
FFFFFF
FFFFFF
FFFFFF
FFFFFF
FFFFFF
FFFFFF
FFFFFF
FFFFFF
FFFFFF
FFFFFF
FFFFFF
FFFFFF
FFFFFF
FFFFFF
FFFFFF
FFFFFF
FFFFFF
FFFFFF
FFFFFF
FFFFFF
FFFFFF
FFFFFF
FFFFFF
FFFFFF
FFFFFF
7FFFFF
7FFFFE
ENDCHAR
STARTCHAR .notdef
ENCODING -1
SWIDTH 571 0
DWIDTH 29 0
BBX 1 1 0 0
BITMAP
00
ENDCHAR
STARTCHAR glyph1
ENCODING -1
SWIDTH 0 0
DWIDTH 0 0
BBX 1 1 0 0
BITMAP
00
ENDCHAR
STARTCHAR glyph12
ENCODING -1
SWIDTH 571 0
DWIDTH 29 0
BBX 24 33 2 0
BITMAP
7B9DEF
FFFFFF
FFFFFF
7BBDEF
210804
7BFDEF
FFFFFF
FFFFEF
739DEE
3398C6
7FFDEF
FFFFFF
7FFDEF
739CCE
739CEE
7FFFEF
FFFFFF
7FFDEF
3118C6
739DEF
FFFFFF
FFFFFF
7BBDEF
010000
7BBDEF
FFFFFF
FFFFEF
739DEF
3398C6
7FFDEF
FFFFFF
7FFFEF
739CCE
ENDCHAR
STARTCHAR glyph48
ENCODING -1
SWIDTH 571 0
DWIDTH 29 0
BBX 24 33 2 0
BITMAP
7B81EF
FFC1FF
FFC1FF
7B81EF
200004
78000F
F8001F
F8000F
70000E
001806
003C0F
003E1F
003C0F
001C0E
0000EE
0001EF
0001FF
0001EF
0000C6
00000F
00001F
00001F
00000F
000000
783C0F
F83E1F
F83E0F
701C0F
3398C6
7FFDEF
FFFFFF
7FFFEF
739CCE
ENDCHAR
STARTCHAR glyph74
ENCODING -1
SWIDTH 571 0
DWIDTH 29 0
BBX 24 38 2 -5
BITMAP
781C00
F83E00
F83E00
783C00
000000
000000
000000
000000
000000
3380C6
7FC1EF
FFC1FF
7FC1EF
7380CE
70000E
78000F
F8001F
78000F
300006
038000
07C000
07C000
038000
000000
78000F
F8001F
F8000F
70000F
3398C6
7FFDEF
FFFFFF
7FFFEF
739CCE
0380C0
07C1E0
07C1E0
07C1E0
0380C0
ENDCHAR
ENDFONT
